<?xml version="1.0" standalone="no"?>
<!DOCTYPE svg PUBLIC "-//W3C//DTD SVG 20010904//EN"
 "http://www.w3.org/TR/2001/REC-SVG-20010904/DTD/svg10.dtd">
<svg version="1.0" xmlns="http://www.w3.org/2000/svg"
 width="512.000000pt" height="512.000000pt" viewBox="0 0 512.000000 512.000000"
 preserveAspectRatio="xMidYMid meet">

<g transform="translate(0.000000,512.000000) scale(0.100000,-0.100000)"
fill="#000000" stroke="none">
<path d="M3636 5065 c-175 -29 -351 -98 -483 -191 -35 -24 -67 -44 -70 -44 -3
0 -24 15 -47 34 -65 53 -105 69 -184 74 -66 4 -78 2 -137 -27 -104 -51 -158
-136 -159 -251 -1 -82 15 -127 66 -192 27 -34 38 -55 32 -63 -5 -7 -31 -39
-57 -71 -27 -33 -62 -83 -79 -111 -16 -29 -32 -53 -34 -53 -2 0 -30 14 -61 32
-45 26 -68 32 -117 32 -117 1 -74 40 -1089 -973 -511 -509 -951 -955 -978
-991 -99 -131 -188 -339 -220 -520 -23 -122 -17 -402 10 -530 107 -509 405
-883 852 -1069 182 -76 402 -117 586 -109 85 4 98 7 114 27 23 28 24 69 4 97
-13 20 -27 22 -177 27 -90 3 -197 13 -238 22 -554 121 -955 571 -1012 1138
-26 254 34 527 162 747 67 114 59 114 115 -7 295 -643 696 -1059 1230 -1276
199 -82 407 -128 633 -143 l114 -7 -84 -84 c-117 -118 -212 -188 -363 -264
l-130 -65 -3 -38 c-4 -45 27 -86 64 -86 54 0 245 103 374 201 103 78 1862
1844 1887 1895 45 87 35 177 -28 264 -21 29 -28 45 -20 48 24 8 156 100 202
141 l46 40 29 -30 c101 -106 282 -110 397 -10 117 103 122 298 10 413 l-36 36
46 69 c97 146 160 303 193 478 12 69 15 126 11 245 -6 175 -29 288 -90 428
-29 66 -36 98 -42 181 -7 97 -6 100 18 125 28 28 84 46 144 46 33 0 46 5 62
26 35 44 27 72 -35 129 -114 106 -243 165 -374 173 -101 5 -170 -8 -260 -49
l-65 -29 -85 36 c-192 81 -444 112 -644 79z m350 -150 c83 -15 223 -55 252
-73 10 -7 6 -22 -15 -68 -25 -52 -28 -71 -28 -159 0 -89 3 -107 29 -162 35
-77 123 -164 203 -200 49 -23 72 -27 153 -27 92 -1 121 7 201 51 8 5 56 -157
69 -231 15 -88 12 -272 -6 -366 -30 -160 -99 -313 -199 -445 -75 -98 -425
-441 -515 -504 -41 -29 -97 -64 -124 -78 l-49 -25 -76 35 c-195 89 -462 146
-903 191 -76 8 -142 17 -146 20 -5 3 -12 38 -16 78 -10 119 -37 301 -46 326
-20 47 -97 51 -127 6 -14 -22 -13 -40 7 -204 13 -99 20 -183 17 -186 -3 -4
-118 1 -254 10 -324 21 -680 36 -873 36 -85 0 -213 3 -283 7 l-129 6 559 559
c373 373 568 561 589 568 89 30 173 -83 244 -325 19 -67 40 -117 52 -127 37
-33 101 -18 118 28 11 27 -38 204 -85 310 l-25 57 36 66 c57 106 138 204 309
380 242 247 355 331 537 396 174 62 353 79 524 50z m822 -65 c28 -12 52 -25
52 -29 0 -3 -16 -16 -35 -29 -87 -56 -122 -151 -100 -267 16 -83 8 -103 -55
-135 -77 -39 -175 -21 -250 47 -64 57 -85 111 -77 199 4 51 11 75 33 107 40
55 93 96 156 119 72 25 201 20 276 -12z m-1875 -99 l32 -31 -97 -97 c-108
-108 -109 -108 -149 -27 -26 54 -20 99 18 145 34 40 58 50 116 45 39 -3 55
-10 80 -35z m1788 -1825 c8 -31 7 -48 -6 -83 -36 -93 -144 -115 -225 -46 l-32
26 98 98 98 99 28 -27 c16 -15 33 -45 39 -67z m-2796 -147 c860 -32 1563 -126
1887 -250 140 -55 239 -148 223 -212 -4 -13 -134 -151 -289 -306 l-283 -283
-99 -16 c-77 -13 -170 -16 -419 -16 -282 0 -337 2 -462 22 -664 104 -1180 381
-1559 837 l-84 100 73 73 72 74 340 -6 c187 -4 457 -11 600 -17z m-1123 -312
c77 -97 253 -273 353 -353 303 -242 694 -419 1120 -508 247 -51 357 -61 697
-61 l318 0 -357 -357 -356 -356 -96 -8 c-186 -14 -460 24 -658 92 -505 171
-901 540 -1188 1109 -45 88 -94 193 -110 233 l-28 72 114 110 c63 60 116 109
119 110 4 0 36 -37 72 -83z"/>
<path d="M3370 4431 c-73 -23 -130 -73 -130 -115 0 -28 33 -64 66 -72 17 -5
35 1 62 20 50 34 86 33 123 -3 36 -37 37 -70 3 -129 -25 -43 -26 -46 -10 -78
31 -67 103 -57 151 20 27 44 30 58 30 125 -1 86 -14 120 -71 175 -56 55 -151
79 -224 57z"/>
<path d="M3177 3820 c-105 -27 -197 -104 -244 -205 -23 -51 -28 -73 -27 -145
0 -124 25 -172 161 -311 162 -167 220 -200 349 -200 139 0 253 71 316 199 29
59 33 76 33 152 0 128 -24 172 -182 331 -99 100 -138 133 -184 153 -65 30
-162 41 -222 26z m170 -163 c15 -8 78 -66 140 -129 90 -93 114 -123 123 -159
36 -134 -58 -260 -195 -260 -75 0 -117 26 -232 144 -94 95 -132 157 -133 212
0 85 59 172 135 201 46 16 120 12 162 -9z"/>
<path d="M3216 3517 c-45 -45 -36 -69 65 -172 50 -51 99 -95 109 -98 29 -8 79
19 86 47 11 45 -3 69 -88 153 -98 97 -131 111 -172 70z"/>
<path d="M4048 3740 c-40 -12 -97 -49 -108 -70 -19 -35 -12 -77 16 -99 34 -27
50 -26 99 4 47 28 66 30 104 10 54 -27 62 -90 20 -144 -25 -31 -24 -62 2 -95
49 -63 132 -12 165 101 14 48 15 65 4 110 -30 136 -173 222 -302 183z"/>
</g>
</svg>
