<?xml version="1.0" encoding="UTF-8"?>
<!DOCTYPE svg PUBLIC "-//W3C//DTD SVG 1.1//EN" "http://www.w3.org/Graphics/SVG/1.1/DTD/svg11.dtd">
<svg xmlns="http://www.w3.org/2000/svg" version="1.1" width="64px" height="64px" style="shape-rendering:geometricPrecision; text-rendering:geometricPrecision; image-rendering:optimizeQuality; fill-rule:evenodd; clip-rule:evenodd" xmlns:xlink="http://www.w3.org/1999/xlink">
<g><path style="opacity:0.994" fill="#6988fe" d="M 0.5,-0.5 C 9.5,-0.5 18.5,-0.5 27.5,-0.5C 29.182,2.28993 28.682,4.62327 26,6.5C 25.5003,13.8258 25.3337,21.1591 25.5,28.5C 37.1714,28.3335 48.8381,28.5001 60.5,29C 61.5266,29.5133 62.5266,30.0133 63.5,30.5C 63.5,31.8333 63.5,33.1667 63.5,34.5C 62.5178,35.1408 61.5178,35.8075 60.5,36.5C 57.7343,50.7284 49.0676,56.5617 34.5,54C 33.5495,57.0567 33.2161,60.2234 33.5,63.5C 26.1667,63.5 18.8333,63.5 11.5,63.5C 11.5,59.1667 11.5,54.8333 11.5,50.5C 13.4136,53.6843 14.0803,57.351 13.5,61.5C 19.1667,61.5 24.8333,61.5 30.5,61.5C 30.1065,58.0703 30.7732,54.9036 32.5,52C 39.2682,51.1717 45.9348,49.8384 52.5,48C 55.5302,44.4083 56.8636,40.2416 56.5,35.5C 42.1667,35.5 27.8333,35.5 13.5,35.5C 14.0545,39.0122 13.3878,42.0122 11.5,44.5C 11.5,44.1667 11.5,43.8333 11.5,43.5C 12.8003,40.9759 12.8003,38.3092 11.5,35.5C 10.8933,35.6236 10.56,35.9569 10.5,36.5C 6.75647,36.0459 4.25647,34.0459 3,30.5C 2.66667,22.5 2.33333,14.5 2,6.5C 1.2917,5.61947 0.458367,4.9528 -0.5,4.5C -0.5,3.16667 -0.5,1.83333 -0.5,0.5C 0.166667,0.5 0.5,0.166667 0.5,-0.5 Z"/></g>
<g><path style="opacity:1" fill="#a6c3f8" d="M 2.5,1.5 C 10.1955,1.16917 17.8622,1.50251 25.5,2.5C 21.6667,2.83333 17.8333,3.16667 14,3.5C 9.77102,3.48984 5.93768,2.82317 2.5,1.5 Z"/></g>
<g><path style="opacity:1" fill="#e3eafc" d="M 5.5,5.5 C 11.1667,5.5 16.8333,5.5 22.5,5.5C 22.5,14.8333 22.5,24.1667 22.5,33.5C 17.8215,33.6658 13.1548,33.4992 8.5,33C 7.69194,32.6924 7.02527,32.1924 6.5,31.5C 5.5289,22.888 5.19557,14.2214 5.5,5.5 Z"/></g>
<g><path style="opacity:1" fill="#5495fe" d="M 7.5,8.5 C 8.58617,8.61998 9.25284,9.28665 9.5,10.5C 9.16667,11.1667 8.83333,11.8333 8.5,12.5C 7.57131,11.3112 7.23798,9.97782 7.5,8.5 Z"/></g>
<g><path style="opacity:1" fill="#4b91fe" d="M 7.5,14.5 C 8.80011,16.223 9.46677,18.3897 9.5,21C 9.16667,23.1667 8.83333,25.3333 8.5,27.5C 7.50776,23.2172 7.17443,18.8839 7.5,14.5 Z"/></g>
<g><path style="opacity:1" fill="#a2c0f7" d="M 24.5,31.5 C 36.5185,31.1677 48.5185,31.501 60.5,32.5C 54.5,32.8333 48.5,33.1667 42.5,33.5C 36.1275,33.496 30.1275,32.8293 24.5,31.5 Z"/></g>
<g><path style="opacity:0.733" fill="#a412fe" d="M 10.5,36.5 C 10.56,35.9569 10.8933,35.6236 11.5,35.5C 12.8003,38.3092 12.8003,40.9759 11.5,43.5C 11.8016,40.9407 11.4682,38.6074 10.5,36.5 Z"/></g>
<g><path style="opacity:1" fill="#e3eafc" d="M 11.5,50.5 C 11.5,48.5 11.5,46.5 11.5,44.5C 13.3878,42.0122 14.0545,39.0122 13.5,35.5C 27.8333,35.5 42.1667,35.5 56.5,35.5C 56.8636,40.2416 55.5302,44.4083 52.5,48C 45.9348,49.8384 39.2682,51.1717 32.5,52C 30.7732,54.9036 30.1065,58.0703 30.5,61.5C 24.8333,61.5 19.1667,61.5 13.5,61.5C 14.0803,57.351 13.4136,53.6843 11.5,50.5 Z"/></g>
</svg>
