<?xml version="1.0" encoding="UTF-8"?>
<!DOCTYPE svg PUBLIC "-//W3C//DTD SVG 1.1//EN" "http://www.w3.org/Graphics/SVG/1.1/DTD/svg11.dtd">
<svg xmlns="http://www.w3.org/2000/svg" version="1.1" width="64px" height="64px" style="shape-rendering:geometricPrecision; text-rendering:geometricPrecision; image-rendering:optimizeQuality; fill-rule:evenodd; clip-rule:evenodd" xmlns:xlink="http://www.w3.org/1999/xlink">
<g><path style="opacity:1" fill="#7c93a8" d="M 3.5,7.5 C 11.5069,7.33362 19.5069,7.50029 27.5,8C 29.6575,9.98116 31.3241,12.3145 32.5,15C 39.1667,15.3333 45.8333,15.6667 52.5,16C 54.9193,17.5088 55.9193,19.6755 55.5,22.5C 59.5617,22.0115 61.895,23.6782 62.5,27.5C 60.4372,35.5226 58.2706,43.5226 56,51.5C 54.8333,52.6667 53.6667,53.8333 52.5,55C 36.1667,55.6667 19.8333,55.6667 3.5,55C 2.33333,54.5 1.5,53.6667 1,52.5C 0.333333,38.5 0.333333,24.5 1,10.5C 2.04499,9.62656 2.87833,8.62656 3.5,7.5 Z M 5.5,11.5 C 12.175,11.3337 18.8417,11.5004 25.5,12C 27.1667,14.3333 28.8333,16.6667 30.5,19C 37.1667,19.3333 43.8333,19.6667 50.5,20C 50.9574,20.414 51.2907,20.914 51.5,21.5C 38.1791,22.3327 24.8458,22.8327 11.5,23C 10.0692,23.4652 8.90252,24.2986 8,25.5C 7,28.8333 6,32.1667 5,35.5C 4.20039,27.4211 4.36706,19.4211 5.5,11.5 Z"/></g>
<g><path style="opacity:1" fill="#c9ebfb" d="M 13.5,26.5 C 28.837,26.3334 44.1703,26.5001 59.5,27C 57.6499,28.8449 57.3166,30.8449 58.5,33C 56.8753,33.8525 56.5419,34.8525 57.5,36C 54.9817,37.8798 54.315,40.2132 55.5,43C 53.653,45.5192 51.9863,48.1859 50.5,51C 35.5037,51.4999 20.5037,51.6666 5.5,51.5C 7.01478,44.1076 8.84811,36.7742 11,29.5C 11.6979,28.3094 12.5313,27.3094 13.5,26.5 Z"/></g>
</svg>
