<?xml version="1.0" standalone="no"?>
<!DOCTYPE svg PUBLIC "-//W3C//DTD SVG 20010904//EN"
 "http://www.w3.org/TR/2001/REC-SVG-20010904/DTD/svg10.dtd">
<svg version="1.0" xmlns="http://www.w3.org/2000/svg"
 width="64.000000pt" height="64.000000pt" viewBox="0 0 64.000000 64.000000"
 preserveAspectRatio="xMidYMid meet">

<g transform="translate(0.000000,64.000000) scale(0.100000,-0.100000)"
fill="#000000" stroke="none">
<path d="M0 320 l0 -320 320 0 320 0 0 320 0 320 -320 0 -320 0 0 -320z m465
261 c78 -35 141 -129 133 -197 l-3 -29 -120 0 -120 0 -3 109 c-1 61 0 116 2
123 8 19 64 16 111 -6z m-178 -69 c8 -5 13 -43 15 -107 l3 -100 100 -3 c54 -1
102 -7 106 -13 8 -14 -7 -92 -25 -127 -40 -77 -141 -128 -232 -119 -193 20
-280 247 -151 394 39 45 87 68 167 82 3 0 10 -3 17 -7z"/>
<path d="M400 470 l0 -70 70 0 c60 0 70 2 70 18 0 45 -77 122 -122 122 -16 0
-18 -10 -18 -70z"/>
<path d="M183 435 c-23 -14 -51 -40 -62 -58 -102 -166 90 -358 257 -255 31 19
82 92 82 116 0 8 -29 12 -93 12 -59 0 -97 4 -105 12 -8 8 -12 46 -12 105 0
105 -2 107 -67 68z"/>
</g>
</svg>
