<?xml version="1.0" encoding="UTF-8"?>
<!DOCTYPE svg PUBLIC "-//W3C//DTD SVG 1.1//EN" "http://www.w3.org/Graphics/SVG/1.1/DTD/svg11.dtd">
<svg xmlns="http://www.w3.org/2000/svg" version="1.1" width="64px" height="64px" style="shape-rendering:geometricPrecision; text-rendering:geometricPrecision; image-rendering:optimizeQuality; fill-rule:evenodd; clip-rule:evenodd" xmlns:xlink="http://www.w3.org/1999/xlink">
<g><path style="opacity:0.763" fill="#000000" d="M -0.5,62.5 C -0.5,56.8333 -0.5,51.1667 -0.5,45.5C 2.16667,45.5 4.83333,45.5 7.5,45.5C 7.5,40.5 7.5,35.5 7.5,30.5C 15.1667,30.5 22.8333,30.5 30.5,30.5C 30.5,26.1667 30.5,21.8333 30.5,17.5C 27.8333,17.5 25.1667,17.5 22.5,17.5C 22.5,11.8333 22.5,6.16667 22.5,0.5C 28.5,0.5 34.5,0.5 40.5,0.5C 40.5,6.16667 40.5,11.8333 40.5,17.5C 37.8333,17.5 35.1667,17.5 32.5,17.5C 32.5,21.8333 32.5,26.1667 32.5,30.5C 40.1667,30.5 47.8333,30.5 55.5,30.5C 55.5,35.5 55.5,40.5 55.5,45.5C 57.8333,45.5 60.1667,45.5 62.5,45.5C 62.5,51.1667 62.5,56.8333 62.5,62.5C 56.8333,62.5 51.1667,62.5 45.5,62.5C 45.5,56.8333 45.5,51.1667 45.5,45.5C 47.8333,45.5 50.1667,45.5 52.5,45.5C 52.5,41.1667 52.5,36.8333 52.5,32.5C 45.8333,32.5 39.1667,32.5 32.5,32.5C 32.5,36.8333 32.5,41.1667 32.5,45.5C 35.1667,45.5 37.8333,45.5 40.5,45.5C 40.5,51.1667 40.5,56.8333 40.5,62.5C 34.5,62.5 28.5,62.5 22.5,62.5C 22.5,56.8333 22.5,51.1667 22.5,45.5C 25.1667,45.5 27.8333,45.5 30.5,45.5C 30.5,41.1667 30.5,36.8333 30.5,32.5C 23.8333,32.5 17.1667,32.5 10.5,32.5C 10.5,36.8333 10.5,41.1667 10.5,45.5C 12.8333,45.5 15.1667,45.5 17.5,45.5C 17.5,51.1667 17.5,56.8333 17.5,62.5C 11.5,62.5 5.5,62.5 -0.5,62.5 Z M 25.5,2.5 C 29.5,2.5 33.5,2.5 37.5,2.5C 37.5,6.83333 37.5,11.1667 37.5,15.5C 33.5,15.5 29.5,15.5 25.5,15.5C 25.5,11.1667 25.5,6.83333 25.5,2.5 Z M 2.5,47.5 C 6.83333,47.5 11.1667,47.5 15.5,47.5C 15.5,51.8333 15.5,56.1667 15.5,60.5C 11.1667,60.5 6.83333,60.5 2.5,60.5C 2.5,56.1667 2.5,51.8333 2.5,47.5 Z M 25.5,47.5 C 29.5,47.5 33.5,47.5 37.5,47.5C 37.5,51.8333 37.5,56.1667 37.5,60.5C 33.5,60.5 29.5,60.5 25.5,60.5C 25.5,56.1667 25.5,51.8333 25.5,47.5 Z M 47.5,47.5 C 51.8333,47.5 56.1667,47.5 60.5,47.5C 60.5,51.8333 60.5,56.1667 60.5,60.5C 56.1667,60.5 51.8333,60.5 47.5,60.5C 47.5,56.1667 47.5,51.8333 47.5,47.5 Z"/></g>
</svg>
